JetBrainsMoro-Regular.ufo
<glyph name="comma" format="2">
  <advance width="600"/>
  <unicode hex="002C"/>
  <outline>
    <contour>
      <point x="210" y="-160" type="line"/>
      <point x="300" y="-160" type="line"/>
      <point x="370" y="151" type="line"/>
      <point x="265" y="151" type="line"/>
    </contour>
  </outline>
</glyph>
<glyph name="M" format="2">
  <advance width="600"/>
  <unicode hex="004D"/>
  <anchor x="300" y="0" name="bottom"/>
  <anchor x="300" y="730" name="top"/>
  <outline>
    <contour>
      <point x="76" y="0" type="line"/>
      <point x="164" y="0" type="line"/>
      <point x="164" y="345" type="line" smooth="yes"/>
      <point x="164" y="476"/>
      <point x="151" y="584"/>
      <point x="137" y="685" type="curve"/>
      <point x="257" y="320" type="line"/>
      <point x="343" y="320" type="line"/>
      <point x="462" y="685" type="line"/>
      <point x="448" y="580"/>
      <point x="436" y="463"/>
      <point x="436" y="345" type="curve" smooth="yes"/>
      <point x="436" y="0" type="line"/>
      <point x="524" y="0" type="line"/>
      <point x="524" y="730" type="line"/>
      <point x="406" y="730" type="line"/>
      <point x="332" y="495" type="line" smooth="yes"/>
      <point x="318" y="451"/>
      <point x="307" y="405"/>
      <point x="302" y="382" type="curve"/>
      <point x="297" y="405"/>
      <point x="286" y="451"/>
      <point x="272" y="494" type="curve" smooth="yes"/>
      <point x="194" y="730" type="line"/>
      <point x="76" y="730" type="line"/>
    </contour>
  </outline>
</glyph>
<glyph name="x" format="2">
  <advance width="600"/>
  <unicode hex="0078"/>
  <anchor x="300" y="0" name="bottom"/>
  <anchor x="300" y="550" name="top"/>
  <outline>
    <contour>
      <point x="50" y="0" type="line"/>
      <point x="155" y="0" type="line"/>
      <point x="274" y="180" type="line" smooth="yes"/>
      <point x="284" y="195"/>
      <point x="295" y="217"/>
      <point x="301" y="229" type="curve"/>
      <point x="307" y="217"/>
      <point x="316" y="195"/>
      <point x="326" y="180" type="curve" smooth="yes"/>
      <point x="444" y="0" type="line"/>
      <point x="550" y="0" type="line"/>
      <point x="356" y="282" type="line"/>
      <point x="539" y="550" type="line"/>
      <point x="434" y="550" type="line"/>
      <point x="324" y="380" type="line" smooth="yes"/>
      <point x="314" y="365"/>
      <point x="305" y="346"/>
      <point x="301" y="335" type="curve"/>
      <point x="296" y="346"/>
      <point x="286" y="365"/>
      <point x="277" y="380" type="curve" smooth="yes"/>
      <point x="168" y="550" type="line"/>
      <point x="62" y="550" type="line"/>
      <point x="245" y="283" type="line"/>
    </contour>
  </outline>
</glyph>
<glyph name="ccedilla" format="2">
  <advance width="600"/>
  <unicode hex="00E7"/>
  <anchor x="304" y="0" name="_bottom"/>
  <anchor x="304" y="0" name="bottom"/>
  <anchor x="304" y="550" name="top"/>
  <outline>
    <contour>
      <point x="209" y="-203" type="line"/>
      <point x="294" y="-203" type="line" smooth="yes"/>
      <point x="366" y="-203"/>
      <point x="414" y="-166"/>
      <point x="414" y="-120" type="curve" smooth="yes"/>
      <point x="414" y="-68"/>
      <point x="346" y="-41"/>
      <point x="294" y="-35" type="curve"/>
      <point x="315" y="26" type="line"/>
      <point x="258" y="26" type="line"/>
      <point x="223" y="-69" type="line"/>
      <point x="290" y="-69"/>
      <point x="328" y="-89"/>
      <point x="328" y="-112" type="curve" smooth="yes"/>
      <point x="328" y="-130"/>
      <point x="308" y="-148"/>
      <point x="279" y="-148" type="curve" smooth="yes"/>
      <point x="209" y="-148" type="line"/>
    </contour>
    <component base="c"/>
  </outline>
</glyph>
<glyph name="dcaron" format="2">
  <advance width="600"/>
  <unicode hex="010F"/>
  <outline>
    <contour>
      <point x="510" y="550" type="line"/>
      <point x="590" y="550" type="line"/>
      <point x="600" y="730" type="line"/>
      <point x="510" y="730" type="line"/>
    </contour>
    <contour>
      <point x="228" y="-10" type="curve" smooth="yes"/>
      <point x="311" y="-10"/>
      <point x="363" y="43"/>
      <point x="363" y="126" type="curve"/>
      <point x="345" y="105" type="line"/>
      <point x="363" y="105" type="line"/>
      <point x="363" y="0" type="line"/>
      <point x="453" y="0" type="line"/>
      <point x="453" y="730" type="line"/>
      <point x="363" y="730" type="line"/>
      <point x="363" y="570" type="line"/>
      <point x="365" y="445" type="line"/>
      <point x="345" y="445" type="line"/>
      <point x="363" y="424" type="line"/>
      <point x="363" y="507"/>
      <point x="311" y="560"/>
      <point x="228" y="560" type="curve" smooth="yes"/>
      <point x="127" y="560"/>
      <point x="63" y="483"/>
      <point x="63" y="360" type="curve" smooth="yes"/>
      <point x="63" y="189" type="line" smooth="yes"/>
      <point x="63" y="67"/>
      <point x="127" y="-10"/>
    </contour>
    <contour>
      <point x="258" y="68" type="curve" smooth="yes"/>
      <point x="192" y="68"/>
      <point x="153" y="115"/>
      <point x="153" y="195" type="curve" smooth="yes"/>
      <point x="153" y="355" type="line" smooth="yes"/>
      <point x="153" y="435"/>
      <point x="192" y="482"/>
      <point x="258" y="482" type="curve" smooth="yes"/>
      <point x="324" y="482"/>
      <point x="363" y="435"/>
      <point x="363" y="355" type="curve" smooth="yes"/>
      <point x="363" y="195" type="line" smooth="yes"/>
      <point x="363" y="115"/>
      <point x="324" y="68"/>
    </contour>
  </outline>
</glyph>
<glyph name="Lslash" format="2">
  <advance width="600"/>
  <unicode hex="0141"/>
  <anchor x="340" y="0" name="bottom"/>
  <anchor x="300" y="365" name="center"/>
  <anchor x="175" y="730" name="top"/>
  <anchor x="580" y="730" name="topright"/>
  <outline>
    <contour>
      <point x="20" y="230" type="line"/>
      <point x="390" y="480" type="line"/>
      <point x="390" y="560" type="line"/>
      <point x="20" y="310" type="line"/>
    </contour>
    <component base="L"/>
  </outline>
</glyph>
<glyph name="Ohorn" format="2">
  <advance width="600"/>
  <unicode hex="01A0"/>
  <anchor x="290" y="730" name="top"/>
  <anchor x="300" y="0" name="bottom"/>
  <anchor x="300" y="365" name="center"/>
  <anchor x="320" y="700" name="horn"/>
  <anchor x="350" y="0" name="ogonek"/>
  <anchor x="20" y="730" name="topleft"/>
  <anchor x="580" y="730" name="topright"/>
  <outline>
    <contour>
      <point x="400" y="635" type="line"/>
      <point x="425" y="635" type="line" smooth="yes"/>
      <point x="489" y="635"/>
      <point x="530" y="672"/>
      <point x="530" y="730" type="curve" smooth="yes"/>
      <point x="530" y="810" type="line"/>
      <point x="455" y="810" type="line"/>
      <point x="455" y="735" type="line" smooth="yes"/>
      <point x="455" y="714"/>
      <point x="441" y="700"/>
      <point x="420" y="700" type="curve" smooth="yes"/>
      <point x="400" y="700" type="line"/>
    </contour>
    <component base="O"/>
  </outline>
</glyph>
<glyph name="tildecomb" format="2">
  <unicode hex="0303"/>
  <anchor x="-300" y="550" name="_top"/>
  <anchor x="-300" y="780" name="top"/>
  <outline>
    <contour>
      <point x="-230" y="650" type="curve" smooth="yes"/>
      <point x="-176" y="650"/>
      <point x="-140" y="685"/>
      <point x="-140" y="745" type="curve" smooth="yes"/>
      <point x="-140" y="775" type="line"/>
      <point x="-205" y="775" type="line"/>
      <point x="-205" y="745" type="line" smooth="yes"/>
      <point x="-205" y="721"/>
      <point x="-217" y="710"/>
      <point x="-235" y="710" type="curve" smooth="yes"/>
      <point x="-280" y="710"/>
      <point x="-290" y="780"/>
      <point x="-370" y="780" type="curve" smooth="yes"/>
      <point x="-424" y="780"/>
      <point x="-460" y="745"/>
      <point x="-460" y="685" type="curve" smooth="yes"/>
      <point x="-460" y="655" type="line"/>
      <point x="-395" y="655" type="line"/>
      <point x="-395" y="685" type="line" smooth="yes"/>
      <point x="-395" y="709"/>
      <point x="-383" y="720"/>
      <point x="-365" y="720" type="curve" smooth="yes"/>
      <point x="-320" y="720"/>
      <point x="-310" y="650"/>
    </contour>
  </outline>
</glyph>
<glyph name="dotaccentcomb" format="2">
  <unicode hex="0307"/>
  <anchor x="-300" y="550" name="_top"/>
  <anchor x="-300" y="777" name="top"/>
  <outline>
    <contour>
      <point x="-300" y="649" type="curve" smooth="yes"/>
      <point x="-256" y="649"/>
      <point x="-229" y="673"/>
      <point x="-229" y="712" type="curve" smooth="yes"/>
      <point x="-229" y="752"/>
      <point x="-256" y="777"/>
      <point x="-300" y="777" type="curve" smooth="yes"/>
      <point x="-344" y="777"/>
      <point x="-371" y="752"/>
      <point x="-371" y="712" type="curve" smooth="yes"/>
      <point x="-371" y="673"/>
      <point x="-344" y="649"/>
    </contour>
  </outline>
</glyph>
<glyph name="beta" format="2">
  <advance width="600"/>
  <unicode hex="03B2"/>
  <outline>
    <contour>
      <point x="92" y="-180" type="line"/>
      <point x="182" y="-180" type="line"/>
      <point x="182" y="0" type="line"/>
      <point x="315" y="0" type="line" smooth="yes"/>
      <point x="444" y="0"/>
      <point x="530" y="86"/>
      <point x="530" y="208" type="curve" smooth="yes"/>
      <point x="530" y="304"/>
      <point x="480" y="370"/>
      <point x="399" y="391" type="curve"/>
      <point x="472" y="412"/>
      <point x="516" y="473"/>
      <point x="516" y="556" type="curve" smooth="yes"/>
      <point x="516" y="667"/>
      <point x="432" y="740"/>
      <point x="306" y="740" type="curve" smooth="yes"/>
      <point x="177" y="740"/>
      <point x="92" y="658"/>
      <point x="92" y="534" type="curve" smooth="yes"/>
    </contour>
    <contour>
      <point x="182" y="82" type="line"/>
      <point x="182" y="534" type="line" smooth="yes"/>
      <point x="182" y="611"/>
      <point x="228" y="658"/>
      <point x="302" y="658" type="curve" smooth="yes"/>
      <point x="377" y="658"/>
      <point x="422" y="611"/>
      <point x="422" y="538" type="curve" smooth="yes"/>
      <point x="422" y="465"/>
      <point x="377" y="413"/>
      <point x="302" y="413" type="curve" smooth="yes"/>
      <point x="261" y="413" type="line"/>
      <point x="261" y="335" type="line"/>
      <point x="305" y="335" type="line" smooth="yes"/>
      <point x="386" y="335"/>
      <point x="435" y="288"/>
      <point x="435" y="211" type="curve" smooth="yes"/>
      <point x="435" y="134"/>
      <point x="385" y="82"/>
      <point x="305" y="82" type="curve" smooth="yes"/>
    </contour>
  </outline>
</glyph>
<glyph name="delta" format="2">
  <advance width="600"/>
  <unicode hex="03B4"/>
  <outline>
    <contour>
      <point x="300" y="-10" type="curve" smooth="yes"/>
      <point x="431" y="-10"/>
      <point x="510" y="71"/>
      <point x="510" y="205" type="curve" smooth="yes"/>
      <point x="510" y="291" type="line" smooth="yes"/>
      <point x="510" y="366"/>
      <point x="478" y="427"/>
      <point x="416" y="481" type="curve" smooth="yes"/>
      <point x="219" y="655" type="line"/>
      <point x="480" y="655" type="line"/>
      <point x="480" y="730" type="line"/>
      <point x="108" y="730" type="line"/>
      <point x="108" y="655" type="line"/>
      <point x="327" y="458" type="line"/>
      <point x="323" y="454" type="line"/>
      <point x="311" y="464"/>
      <point x="279" y="486"/>
      <point x="234" y="486" type="curve" smooth="yes"/>
      <point x="147" y="486"/>
      <point x="90" y="407"/>
      <point x="90" y="288" type="curve" smooth="yes"/>
      <point x="90" y="205" type="line" smooth="yes"/>
      <point x="90" y="72"/>
      <point x="170" y="-10"/>
    </contour>
    <contour>
      <point x="300" y="70" type="curve" smooth="yes"/>
      <point x="224" y="70"/>
      <point x="180" y="119"/>
      <point x="180" y="205" type="curve" smooth="yes"/>
      <point x="180" y="291" type="line" smooth="yes"/>
      <point x="180" y="380"/>
      <point x="223" y="431"/>
      <point x="299" y="431" type="curve" smooth="yes"/>
      <point x="376" y="431"/>
      <point x="420" y="380"/>
      <point x="420" y="291" type="curve" smooth="yes"/>
      <point x="420" y="205" type="line" smooth="yes"/>
      <point x="420" y="119"/>
      <point x="376" y="70"/>
    </contour>
  </outline>
</glyph>
<glyph name="ia-cy" format="2">
  <advance width="600"/>
  <unicode hex="044F"/>
  <outline>
    <contour>
      <point x="65" y="0" type="line"/>
      <point x="169" y="0" type="line"/>
      <point x="297" y="206" type="line"/>
      <point x="418" y="206" type="line"/>
      <point x="418" y="0" type="line"/>
      <point x="508" y="0" type="line"/>
      <point x="508" y="550" type="line"/>
      <point x="274" y="550" type="line" smooth="yes"/>
      <point x="151" y="550"/>
      <point x="74" y="483"/>
      <point x="74" y="377" type="curve" smooth="yes"/>
      <point x="74" y="295"/>
      <point x="124" y="231"/>
      <point x="204" y="212" type="curve"/>
    </contour>
    <contour>
      <point x="274" y="284" type="line" smooth="yes"/>
      <point x="208" y="284"/>
      <point x="166" y="320"/>
      <point x="166" y="377" type="curve" smooth="yes"/>
      <point x="166" y="435"/>
      <point x="208" y="471"/>
      <point x="274" y="471" type="curve" smooth="yes"/>
      <point x="418" y="471" type="line"/>
      <point x="418" y="284" type="line"/>
    </contour>
  </outline>
</glyph>
<glyph name="trademark" format="2">
  <advance width="600"/>
  <unicode hex="2122"/>
  <outline>
    <contour>
      <point x="115" y="370" type="line"/>
      <point x="175" y="370" type="line"/>
      <point x="175" y="680" type="line"/>
      <point x="275" y="680" type="line"/>
      <point x="275" y="730" type="line"/>
      <point x="15" y="730" type="line"/>
      <point x="15" y="680" type="line"/>
      <point x="115" y="680" type="line"/>
    </contour>
    <contour>
      <point x="310" y="370" type="line"/>
      <point x="365" y="370" type="line"/>
      <point x="365" y="591" type="line" smooth="yes"/>
      <point x="365" y="628"/>
      <point x="360" y="675"/>
      <point x="357" y="700" type="curve"/>
      <point x="365" y="673"/>
      <point x="376" y="633"/>
      <point x="380" y="621" type="curve" smooth="yes"/>
      <point x="413" y="517" type="line"/>
      <point x="464" y="517" type="line"/>
      <point x="494" y="620" type="line" smooth="yes"/>
      <point x="498" y="632"/>
      <point x="509" y="673"/>
      <point x="517" y="700" type="curve"/>
      <point x="514" y="675"/>
      <point x="510" y="628"/>
      <point x="510" y="591" type="curve" smooth="yes"/>
      <point x="510" y="370" type="line"/>
      <point x="565" y="370" type="line"/>
      <point x="565" y="730" type="line"/>
      <point x="487" y="730" type="line"/>
      <point x="454" y="628" type="line" smooth="yes"/>
      <point x="447" y="609"/>
      <point x="442" y="576"/>
      <point x="440" y="557" type="curve"/>
      <point x="437" y="576"/>
      <point x="431" y="609"/>
      <point x="424" y="628" type="curve" smooth="yes"/>
      <point x="390" y="730" type="line"/>
      <point x="310" y="730" type="line"/>
    </contour>
  </outline>
</glyph>
<glyph name="upFrombarArrow" format="2">
  <advance width="600"/>
  <unicode hex="21A5"/>
  <outline>
    <contour>
      <point x="100" y="0" type="line"/>
      <point x="500" y="0" type="line"/>
      <point x="500" y="82" type="line"/>
      <point x="345" y="82" type="line"/>
      <point x="345" y="350" type="line" smooth="yes"/>
      <point x="345" y="379"/>
      <point x="342" y="413"/>
      <point x="340" y="430" type="curve"/>
      <point x="350" y="430" type="line"/>
      <point x="356" y="422"/>
      <point x="375" y="401"/>
      <point x="404" y="377" type="curve" smooth="yes"/>
      <point x="500" y="296" type="line"/>
      <point x="500" y="401" type="line"/>
      <point x="301" y="570" type="line"/>
      <point x="100" y="401" type="line"/>
      <point x="100" y="296" type="line"/>
      <point x="195" y="376" type="line" smooth="yes"/>
      <point x="224" y="400"/>
      <point x="244" y="421"/>
      <point x="250" y="430" type="curve"/>
      <point x="260" y="430" type="line"/>
      <point x="258" y="413"/>
      <point x="255" y="379"/>
      <point x="255" y="350" type="curve" smooth="yes"/>
      <point x="255" y="82" type="line"/>
      <point x="100" y="82" type="line"/>
    </contour>
  </outline>
</glyph>
<glyph name="rightTripleArrow" format="2">
  <advance width="600"/>
  <unicode hex="21DB"/>
  <outline>
    <contour>
      <point x="343" y="35" type="line"/>
      <point x="449" y="35" type="line"/>
      <point x="680" y="330" type="line"/>
      <point x="448" y="625" type="line"/>
      <point x="343" y="625" type="line"/>
      <point x="575" y="330" type="line"/>
    </contour>
    <contour>
      <point x="-80" y="120" type="line"/>
      <point x="475" y="120" type="line"/>
      <point x="535" y="198" type="line"/>
      <point x="-80" y="198" type="line"/>
    </contour>
    <contour>
      <point x="-80" y="462" type="line"/>
      <point x="535" y="462" type="line"/>
      <point x="485" y="540" type="line"/>
      <point x="-80" y="540" type="line"/>
    </contour>
    <contour>
      <point x="-80" y="291" type="line"/>
      <point x="585" y="291" type="line"/>
      <point x="585" y="369" type="line"/>
      <point x="-80" y="369" type="line"/>
    </contour>
  </outline>
</glyph>
<glyph name="union" format="2">
  <advance width="600"/>
  <unicode hex="222A"/>
  <outline>
    <contour>
      <point x="43" y="730" type="line"/>
      <point x="43" y="220" type="line" smooth="yes"/>
      <point x="43" y="77"/>
      <point x="123" y="0"/>
      <point x="271" y="0" type="curve" smooth="yes"/>
      <point x="329" y="0" type="line" smooth="yes"/>
      <point x="477" y="0"/>
      <point x="557" y="77"/>
      <point x="557" y="220" type="curve" smooth="yes"/>
      <point x="557" y="730" type="line"/>
      <point x="467" y="730" type="line"/>
      <point x="467" y="220" type="line" smooth="yes"/>
      <point x="467" y="129"/>
      <point x="418" y="80"/>
      <point x="327" y="80" type="curve" smooth="yes"/>
      <point x="273" y="80" type="line" smooth="yes"/>
      <point x="182" y="80"/>
      <point x="133" y="129"/>
      <point x="133" y="220" type="curve" smooth="yes"/>
      <point x="133" y="730" type="line"/>
    </contour>
  </outline>
</glyph>
<glyph name="normalsubgroupoforequalto" format="2">
  <advance width="600"/>
  <unicode hex="22B4"/>
  <outline>
    <contour>
      <point x="515" y="190" type="line"/>
      <point x="515" y="720" type="line"/>
      <point x="85" y="505" type="line"/>
      <point x="85" y="405" type="line"/>
    </contour>
    <contour>
      <point x="85" y="0" type="line"/>
      <point x="515" y="0" type="line"/>
      <point x="515" y="80" type="line"/>
      <point x="85" y="80" type="line"/>
    </contour>
    <contour>
      <point x="439" y="319" type="line"/>
      <point x="205" y="433" type="line" smooth="yes"/>
      <point x="182" y="444"/>
      <point x="157" y="454"/>
      <point x="145" y="457" type="curve"/>
      <point x="156" y="460"/>
      <point x="180" y="468"/>
      <point x="205" y="480" type="curve" smooth="yes"/>
      <point x="439" y="594" type="line"/>
    </contour>
  </outline>
</glyph>
<glyph name="leftcurlybracketupperhook" format="2">
  <advance width="600"/>
  <unicode hex="23A7"/>
  <outline>
    <contour>
      <point x="255" y="-300" type="line"/>
      <point x="345" y="-300" type="line"/>
      <point x="345" y="664" type="line" smooth="yes"/>
      <point x="345" y="721"/>
      <point x="377" y="750"/>
      <point x="440" y="750" type="curve" smooth="yes"/>
      <point x="485" y="750" type="line"/>
      <point x="485" y="830" type="line"/>
      <point x="440" y="830" type="line" smooth="yes"/>
      <point x="322" y="830"/>
      <point x="255" y="769"/>
      <point x="255" y="664" type="curve" smooth="yes"/>
    </contour>
  </outline>
</glyph>
<glyph name="boxVerticalSingleAndHorizontalDouble" format="2">
  <advance width="600"/>
  <unicode hex="256A"/>
  <outline>
    <contour>
      <point x="250" y="-400" type="line"/>
      <point x="350" y="-400" type="line"/>
      <point x="350" y="220" type="line"/>
      <point x="620" y="220" type="line"/>
      <point x="620" y="320" type="line"/>
      <point x="350" y="320" type="line"/>
      <point x="350" y="420" type="line"/>
      <point x="620" y="420" type="line"/>
      <point x="620" y="520" type="line"/>
      <point x="350" y="520" type="line"/>
      <point x="350" y="1120" type="line"/>
      <point x="250" y="1120" type="line"/>
      <point x="250" y="520" type="line"/>
      <point x="-20" y="520" type="line"/>
      <point x="-20" y="420" type="line"/>
      <point x="250" y="420" type="line"/>
      <point x="250" y="320" type="line"/>
      <point x="-20" y="320" type="line"/>
      <point x="-20" y="220" type="line"/>
      <point x="250" y="220" type="line"/>
    </contour>
  </outline>
</glyph>
<glyph name="boxHeavyUpAndLightDown" format="2">
  <advance width="600"/>
  <unicode hex="257F"/>
  <outline>
    <contour>
      <point x="250" y="-400" type="line"/>
      <point x="350" y="-400" type="line"/>
      <point x="350" y="320" type="line"/>
      <point x="400" y="320" type="line"/>
      <point x="400" y="1120" type="line"/>
      <point x="200" y="1120" type="line"/>
      <point x="200" y="320" type="line"/>
      <point x="250" y="320" type="line"/>
    </contour>
  </outline>
</glyph>
<glyph name="highVoltageSign" format="2">
  <advance width="600"/>
  <unicode hex="26A1"/>
  <outline>
    <contour>
      <point x="470" y="840" type="line"/>
      <point x="20" y="310" type="line"/>
      <point x="295" y="310" type="line"/>
      <point x="50" y="-110" type="line"/>
      <point x="580" y="440" type="line"/>
      <point x="290" y="440" type="line"/>
    </contour>
  </outline>
</glyph>
<glyph name="rightwhitesquarebracket-math" format="2">
  <advance width="600"/>
  <unicode hex="27E7"/>
  <outline>
    <contour>
      <point x="105" y="-110" type="line"/>
      <point x="440" y="-110" type="line"/>
      <point x="440" y="830" type="line"/>
      <point x="105" y="830" type="line"/>
      <point x="105" y="785" type="line"/>
      <point x="390" y="785" type="line"/>
      <point x="390" y="-65" type="line"/>
      <point x="105" y="-65" type="line"/>
    </contour>
    <contour>
      <point x="280" y="-75" type="line"/>
      <point x="330" y="-75" type="line"/>
      <point x="330" y="805" type="line"/>
      <point x="280" y="805" type="line"/>
    </contour>
  </outline>
</glyph>
<glyph name="O.half" format="2">
  <advance width="400"/>
  <outline>
    <contour>
      <point x="200" y="-5" type="curve" smooth="yes"/>
      <point x="300" y="-5"/>
      <point x="375" y="69"/>
      <point x="375" y="167" type="curve" smooth="yes"/>
      <point x="375" y="266"/>
      <point x="300" y="340"/>
      <point x="200" y="340" type="curve" smooth="yes"/>
      <point x="100" y="340"/>
      <point x="25" y="266"/>
      <point x="25" y="167" type="curve" smooth="yes"/>
      <point x="25" y="69"/>
      <point x="100" y="-5"/>
    </contour>
    <contour>
      <point x="200" y="53" type="curve" smooth="yes"/>
      <point x="140" y="53"/>
      <point x="93" y="102"/>
      <point x="93" y="167" type="curve" smooth="yes"/>
      <point x="93" y="232"/>
      <point x="140" y="282"/>
      <point x="200" y="282" type="curve" smooth="yes"/>
      <point x="260" y="282"/>
      <point x="307" y="232"/>
      <point x="307" y="167" type="curve" smooth="yes"/>
      <point x="307" y="102"/>
      <point x="260" y="53"/>
    </contour>
  </outline>
</glyph>
<glyph name="ampersand_ampersand_ampersand.liga" format="2">
  <advance width="600"/>
  <outline>
    <contour>
      <point x="170" y="-10" type="curve" smooth="yes"/>
      <point x="235" y="-10"/>
      <point x="296" y="24"/>
      <point x="344" y="87" type="curve"/>
      <point x="407" y="0" type="line"/>
      <point x="506" y="0" type="line"/>
      <point x="389" y="161" type="line"/>
      <point x="502" y="360" type="line"/>
      <point x="408" y="360" type="line"/>
      <point x="337" y="233" type="line"/>
      <point x="165" y="470" type="line" smooth="yes"/>
      <point x="140" y="504"/>
      <point x="125" y="546"/>
      <point x="125" y="579" type="curve" smooth="yes"/>
      <point x="125" y="630"/>
      <point x="160" y="662"/>
      <point x="215" y="662" type="curve" smooth="yes"/>
      <point x="276" y="662"/>
      <point x="314" y="627"/>
      <point x="314" y="569" type="curve"/>
      <point x="404" y="569" type="line"/>
      <point x="404" y="674"/>
      <point x="331" y="740"/>
      <point x="215" y="740" type="curve" smooth="yes"/>
      <point x="107" y="740"/>
      <point x="35" y="677"/>
      <point x="35" y="581" type="curve" smooth="yes"/>
      <point x="35" y="533"/>
      <point x="53" y="487"/>
      <point x="94" y="431" type="curve" smooth="yes"/>
      <point x="101" y="421" type="line"/>
      <point x="33" y="401"/>
      <point x="-5" y="350"/>
      <point x="-5" y="280" type="curve" smooth="yes"/>
      <point x="-5" y="155" type="line" smooth="yes"/>
      <point x="-5" y="52"/>
      <point x="61" y="-10"/>
    </contour>
    <contour>
      <point x="-905" y="70" type="curve" smooth="yes"/>
      <point x="-962" y="70"/>
      <point x="-995" y="101"/>
      <point x="-995" y="155" type="curve" smooth="yes"/>
      <point x="-995" y="280" type="line" smooth="yes"/>
      <point x="-995" y="324"/>
      <point x="-974" y="351"/>
      <point x="-933" y="358" type="curve"/>
      <point x="-786" y="155" type="line"/>
      <point x="-815" y="102"/>
      <point x="-860" y="70"/>
    </contour>
    <contour>
      <point x="-910" y="-10" type="curve" smooth="yes"/>
      <point x="-845" y="-10"/>
      <point x="-784" y="24"/>
      <point x="-736" y="87" type="curve"/>
      <point x="-673" y="0" type="line"/>
      <point x="-574" y="0" type="line"/>
      <point x="-915" y="470" type="line" smooth="yes"/>
      <point x="-940" y="504"/>
      <point x="-955" y="546"/>
      <point x="-955" y="579" type="curve" smooth="yes"/>
      <point x="-955" y="630"/>
      <point x="-920" y="662"/>
      <point x="-865" y="662" type="curve" smooth="yes"/>
      <point x="-804" y="662"/>
      <point x="-766" y="627"/>
      <point x="-766" y="569" type="curve"/>
      <point x="-676" y="569" type="line"/>
      <point x="-676" y="674"/>
      <point x="-749" y="740"/>
      <point x="-865" y="740" type="curve" smooth="yes"/>
      <point x="-973" y="740"/>
      <point x="-1045" y="677"/>
      <point x="-1045" y="581" type="curve" smooth="yes"/>
      <point x="-1045" y="533"/>
      <point x="-1027" y="487"/>
      <point x="-986" y="431" type="curve" smooth="yes"/>
      <point x="-979" y="421" type="line"/>
      <point x="-1047" y="401"/>
      <point x="-1085" y="350"/>
      <point x="-1085" y="280" type="curve" smooth="yes"/>
      <point x="-1085" y="155" type="line" smooth="yes"/>
      <point x="-1085" y="52"/>
      <point x="-1019" y="-10"/>
    </contour>
    <contour>
      <point x="-365" y="70" type="curve" smooth="yes"/>
      <point x="-422" y="70"/>
      <point x="-455" y="101"/>
      <point x="-455" y="155" type="curve" smooth="yes"/>
      <point x="-455" y="280" type="line" smooth="yes"/>
      <point x="-455" y="324"/>
      <point x="-434" y="351"/>
      <point x="-393" y="358" type="curve"/>
      <point x="-246" y="155" type="line"/>
      <point x="-275" y="102"/>
      <point x="-320" y="70"/>
    </contour>
    <contour>
      <point x="-370" y="-10" type="curve" smooth="yes"/>
      <point x="-305" y="-10"/>
      <point x="-244" y="24"/>
      <point x="-196" y="87" type="curve"/>
      <point x="-133" y="0" type="line"/>
      <point x="-34" y="0" type="line"/>
      <point x="-375" y="470" type="line" smooth="yes"/>
      <point x="-400" y="504"/>
      <point x="-415" y="546"/>
      <point x="-415" y="579" type="curve" smooth="yes"/>
      <point x="-415" y="630"/>
      <point x="-380" y="662"/>
      <point x="-325" y="662" type="curve" smooth="yes"/>
      <point x="-264" y="662"/>
      <point x="-226" y="627"/>
      <point x="-226" y="569" type="curve"/>
      <point x="-136" y="569" type="line"/>
      <point x="-136" y="674"/>
      <point x="-209" y="740"/>
      <point x="-325" y="740" type="curve" smooth="yes"/>
      <point x="-433" y="740"/>
      <point x="-505" y="677"/>
      <point x="-505" y="581" type="curve" smooth="yes"/>
      <point x="-505" y="533"/>
      <point x="-487" y="487"/>
      <point x="-446" y="431" type="curve" smooth="yes"/>
      <point x="-439" y="421" type="line"/>
      <point x="-507" y="401"/>
      <point x="-545" y="350"/>
      <point x="-545" y="280" type="curve" smooth="yes"/>
      <point x="-545" y="155" type="line" smooth="yes"/>
      <point x="-545" y="52"/>
      <point x="-479" y="-10"/>
    </contour>
    <contour>
      <point x="175" y="70" type="curve" smooth="yes"/>
      <point x="118" y="70"/>
      <point x="85" y="101"/>
      <point x="85" y="155" type="curve" smooth="yes"/>
      <point x="85" y="280" type="line" smooth="yes"/>
      <point x="85" y="324"/>
      <point x="106" y="351"/>
      <point x="147" y="358" type="curve"/>
      <point x="294" y="155" type="line"/>
      <point x="265" y="102"/>
      <point x="220" y="70"/>
    </contour>
  </outline>
</glyph>
<glyph name="brevecomb_gravecomb.case" format="2">
  <anchor x="-300" y="730" name="_top"/>
  <anchor x="-300" y="1020" name="top"/>
  <outline>
    <contour>
      <point x="-325" y="780" type="curve" smooth="yes"/>
      <point x="-276" y="780" type="line" smooth="yes"/>
      <point x="-190" y="780"/>
      <point x="-135" y="830"/>
      <point x="-135" y="910" type="curve"/>
      <point x="-205" y="910" type="line"/>
      <point x="-205" y="867"/>
      <point x="-232" y="840"/>
      <point x="-276" y="840" type="curve" smooth="yes"/>
      <point x="-325" y="840" type="line" smooth="yes"/>
      <point x="-368" y="840"/>
      <point x="-395" y="867"/>
      <point x="-395" y="910" type="curve"/>
      <point x="-465" y="910" type="line"/>
      <point x="-465" y="830"/>
      <point x="-411" y="780"/>
    </contour>
    <contour>
      <point x="-328" y="900" type="line"/>
      <point x="-237" y="900" type="line"/>
      <point x="-332" y="1020" type="line"/>
      <point x="-428" y="1020" type="line"/>
    </contour>
  </outline>
</glyph>
<glyph name="less_hyphen_bar.liga" format="2">
  <advance width="600"/>
  <outline>
    <contour>
      <point x="380" y="370" type="line"/>
      <point x="-991" y="370" type="line"/>
      <point x="-788" y="625" type="line"/>
      <point x="-893" y="625" type="line"/>
      <point x="-1125" y="330" type="line"/>
      <point x="-894" y="35" type="line"/>
      <point x="-788" y="35" type="line"/>
      <point x="-990" y="290" type="line"/>
      <point x="380" y="290" type="line"/>
      <point x="380" y="35" type="line"/>
      <point x="470" y="35" type="line"/>
      <point x="470" y="625" type="line"/>
      <point x="380" y="625" type="line"/>
    </contour>
  </outline>
</glyph>
<glyph name="less_numbersign_hyphen_hyphen.liga" format="2">
  <advance width="600"/>
  <outline>
    <contour>
      <point x="-1494" y="35" type="line"/>
      <point x="-1388" y="35" type="line"/>
      <point x="-1590" y="290" type="line"/>
      <point x="-1230" y="290" type="line"/>
      <point x="-1230" y="370" type="line"/>
      <point x="-1591" y="370" type="line"/>
      <point x="-1388" y="625" type="line"/>
      <point x="-1493" y="625" type="line"/>
      <point x="-1725" y="330" type="line"/>
    </contour>
    <contour>
      <point x="-560" y="290" type="line"/>
      <point x="515" y="290" type="line"/>
      <point x="515" y="370" type="line"/>
      <point x="-560" y="370" type="line"/>
    </contour>
    <component base="numbersign" xOffset="-1200"/>
  </outline>
</glyph>
<glyph name="two.half" format="2">
  <advance width="400"/>
  <outline>
    <contour>
      <point x="66" y="0" type="line"/>
      <point x="346" y="0" type="line"/>
      <point x="346" y="60" type="line"/>
      <point x="173" y="60" type="line"/>
      <point x="257" y="105" type="line" smooth="yes"/>
      <point x="305" y="131"/>
      <point x="337" y="171"/>
      <point x="337" y="218" type="curve" smooth="yes"/>
      <point x="337" y="293"/>
      <point x="284" y="340"/>
      <point x="198" y="340" type="curve" smooth="yes"/>
      <point x="112" y="340"/>
      <point x="55" y="287"/>
      <point x="51" y="203" type="curve"/>
      <point x="117" y="203" type="line"/>
      <point x="117" y="251"/>
      <point x="148" y="281"/>
      <point x="198" y="281" type="curve" smooth="yes"/>
      <point x="244" y="281"/>
      <point x="271" y="256"/>
      <point x="271" y="216" type="curve" smooth="yes"/>
      <point x="271" y="193"/>
      <point x="250" y="171"/>
      <point x="220" y="153" type="curve" smooth="yes"/>
      <point x="66" y="62" type="line"/>
    </contour>
  </outline>
</glyph>
